<mxfile host="65bd71144e">
    <diagram id="DiWk7qavwZnuw-jvtwFf" name="Page-1">
        <mxGraphModel dx="1871" dy="759" grid="1" gridSize="10" guides="1" tooltips="1" connect="1" arrows="1" fold="1" page="1" pageScale="1" pageWidth="850" pageHeight="1100" math="0" shadow="0">
            <root>
                <mxCell id="0"/>
                <mxCell id="1" parent="0"/>
                <mxCell id="84" value="" style="whiteSpace=wrap;html=1;aspect=fixed;" vertex="1" parent="1">
                    <mxGeometry x="-102.22" y="10" width="900" height="900" as="geometry"/>
                </mxCell>
                <mxCell id="2" value="" style="group" vertex="1" connectable="0" parent="1">
                    <mxGeometry x="290" y="190" width="115.55555555555554" height="115.55555555555554" as="geometry"/>
                </mxCell>
                <mxCell id="3" value="Đăng nhập bằng tài khoản cá nhân" style="ellipse;whiteSpace=wrap;html=1;aspect=fixed;" vertex="1" parent="2">
                    <mxGeometry width="115.55555555555556" height="115.55555555555556" as="geometry"/>
                </mxCell>
                <mxCell id="4" value="" style="endArrow=none;html=1;" edge="1" parent="2">
                    <mxGeometry width="50" height="50" relative="1" as="geometry">
                        <mxPoint x="2.2799999999999727" y="40" as="sourcePoint"/>
                        <mxPoint x="113.27999999999997" y="40" as="targetPoint"/>
                    </mxGeometry>
                </mxCell>
                <mxCell id="5" value="1" style="text;strokeColor=none;fillColor=none;align=center;verticalAlign=middle;spacingLeft=4;spacingRight=4;overflow=hidden;points=[[0,0.5],[1,0.5]];portConstraint=eastwest;rotatable=0;whiteSpace=wrap;html=1;" vertex="1" parent="2">
                    <mxGeometry x="13.330000000000041" width="88.88888888888889" height="33.75" as="geometry"/>
                </mxCell>
                <mxCell id="22" style="edgeStyle=none;html=1;exitX=0.5;exitY=1;exitDx=0;exitDy=0;entryX=0;entryY=0.5;entryDx=0;entryDy=0;" edge="1" parent="1" source="6" target="20">
                    <mxGeometry relative="1" as="geometry">
                        <mxPoint x="140" y="270" as="targetPoint"/>
                    </mxGeometry>
                </mxCell>
                <mxCell id="6" value="Bạn đọc" style="rounded=0;whiteSpace=wrap;html=1;" vertex="1" parent="1">
                    <mxGeometry x="40" y="90" width="120" height="60" as="geometry"/>
                </mxCell>
                <mxCell id="7" value="" style="curved=1;endArrow=classic;html=1;exitX=1;exitY=0.5;exitDx=0;exitDy=0;entryX=0;entryY=0.5;entryDx=0;entryDy=0;" edge="1" parent="1" source="6" target="3">
                    <mxGeometry width="50" height="50" relative="1" as="geometry">
                        <mxPoint x="220" y="360" as="sourcePoint"/>
                        <mxPoint x="270" y="310" as="targetPoint"/>
                        <Array as="points">
                            <mxPoint x="190" y="140"/>
                        </Array>
                    </mxGeometry>
                </mxCell>
                <mxCell id="8" value="tài khoản" style="text;html=1;align=center;verticalAlign=middle;resizable=0;points=[];autosize=1;strokeColor=none;fillColor=none;rotation=45;" vertex="1" parent="1">
                    <mxGeometry x="202" y="163" width="70" height="30" as="geometry"/>
                </mxCell>
                <mxCell id="9" value="" style="group" vertex="1" connectable="0" parent="1">
                    <mxGeometry x="202" y="480" width="115.55555555555554" height="115.55555555555554" as="geometry"/>
                </mxCell>
                <mxCell id="10" value="Xử lý thông tin tiềm kiếm" style="ellipse;whiteSpace=wrap;html=1;aspect=fixed;" vertex="1" parent="9">
                    <mxGeometry width="115.55555555555556" height="115.55555555555556" as="geometry"/>
                </mxCell>
                <mxCell id="11" value="" style="endArrow=none;html=1;" edge="1" parent="9">
                    <mxGeometry width="50" height="50" relative="1" as="geometry">
                        <mxPoint x="2.2799999999999727" y="40" as="sourcePoint"/>
                        <mxPoint x="113.27999999999997" y="40" as="targetPoint"/>
                    </mxGeometry>
                </mxCell>
                <mxCell id="12" value="3" style="text;strokeColor=none;fillColor=none;align=center;verticalAlign=middle;spacingLeft=4;spacingRight=4;overflow=hidden;points=[[0,0.5],[1,0.5]];portConstraint=eastwest;rotatable=0;whiteSpace=wrap;html=1;" vertex="1" parent="9">
                    <mxGeometry x="13.330000000000041" width="88.88888888888889" height="33.75" as="geometry"/>
                </mxCell>
                <mxCell id="13" value="" style="curved=1;endArrow=classic;html=1;exitX=0.5;exitY=1;exitDx=0;exitDy=0;entryX=0.974;entryY=0.729;entryDx=0;entryDy=0;entryPerimeter=0;" edge="1" parent="1" source="3" target="18">
                    <mxGeometry width="50" height="50" relative="1" as="geometry">
                        <mxPoint x="310" y="370" as="sourcePoint"/>
                        <mxPoint x="360" y="320" as="targetPoint"/>
                        <Array as="points">
                            <mxPoint x="410" y="500"/>
                        </Array>
                    </mxGeometry>
                </mxCell>
                <mxCell id="15" value="" style="curved=1;endArrow=classic;html=1;entryX=0.795;entryY=0.921;entryDx=0;entryDy=0;exitX=0.5;exitY=0;exitDx=0;exitDy=0;entryPerimeter=0;" edge="1" parent="1" source="14" target="3">
                    <mxGeometry width="50" height="50" relative="1" as="geometry">
                        <mxPoint x="340" y="330" as="sourcePoint"/>
                        <mxPoint x="425" y="400" as="targetPoint"/>
                        <Array as="points"/>
                    </mxGeometry>
                </mxCell>
                <mxCell id="58" style="edgeStyle=none;html=1;exitX=1;exitY=0.5;exitDx=0;exitDy=0;entryX=0;entryY=0.5;entryDx=0;entryDy=0;" edge="1" parent="1" source="14" target="55">
                    <mxGeometry relative="1" as="geometry"/>
                </mxCell>
                <mxCell id="14" value="Tài khoản" style="shape=partialRectangle;whiteSpace=wrap;html=1;left=0;right=0;fillColor=none;" vertex="1" parent="1">
                    <mxGeometry x="380" y="350" width="120" height="40" as="geometry"/>
                </mxCell>
                <mxCell id="16" value="xác thực" style="text;html=1;align=center;verticalAlign=middle;resizable=0;points=[];autosize=1;strokeColor=none;fillColor=none;rotation=42;" vertex="1" parent="1">
                    <mxGeometry x="390" y="305.56" width="70" height="30" as="geometry"/>
                </mxCell>
                <mxCell id="17" value="" style="group" vertex="1" connectable="0" parent="1">
                    <mxGeometry x="120" y="274.44" width="115.55555555555554" height="115.55555555555554" as="geometry"/>
                </mxCell>
                <mxCell id="18" value="nhập thông tin tiềm kiếm" style="ellipse;whiteSpace=wrap;html=1;aspect=fixed;" vertex="1" parent="17">
                    <mxGeometry width="115.55555555555556" height="115.55555555555556" as="geometry"/>
                </mxCell>
                <mxCell id="19" value="" style="endArrow=none;html=1;" edge="1" parent="17">
                    <mxGeometry width="50" height="50" relative="1" as="geometry">
                        <mxPoint x="2.2799999999999727" y="40" as="sourcePoint"/>
                        <mxPoint x="113.27999999999997" y="40" as="targetPoint"/>
                    </mxGeometry>
                </mxCell>
                <mxCell id="20" value="2" style="text;strokeColor=none;fillColor=none;align=center;verticalAlign=middle;spacingLeft=4;spacingRight=4;overflow=hidden;points=[[0,0.5],[1,0.5]];portConstraint=eastwest;rotatable=0;whiteSpace=wrap;html=1;" vertex="1" parent="17">
                    <mxGeometry x="13.330000000000041" width="88.88888888888889" height="33.75" as="geometry"/>
                </mxCell>
                <mxCell id="21" value="xác thực thành công&amp;nbsp;" style="text;html=1;align=center;verticalAlign=middle;resizable=0;points=[];autosize=1;strokeColor=none;fillColor=none;rotation=35;" vertex="1" parent="1">
                    <mxGeometry x="221" y="366" width="140" height="30" as="geometry"/>
                </mxCell>
                <mxCell id="24" style="edgeStyle=none;html=1;exitX=0.5;exitY=1;exitDx=0;exitDy=0;entryX=0;entryY=0.5;entryDx=0;entryDy=0;" edge="1" parent="1" source="18" target="12">
                    <mxGeometry relative="1" as="geometry"/>
                </mxCell>
                <mxCell id="25" value="thông tin tiểm kiếm" style="text;html=1;align=center;verticalAlign=middle;resizable=0;points=[];autosize=1;strokeColor=none;fillColor=none;rotation=75;" vertex="1" parent="1">
                    <mxGeometry x="70" y="200" width="120" height="30" as="geometry"/>
                </mxCell>
                <mxCell id="26" value="" style="group" vertex="1" connectable="0" parent="1">
                    <mxGeometry x="-20" y="480" width="115.55555555555554" height="115.55555555555554" as="geometry"/>
                </mxCell>
                <mxCell id="27" value="thông báo không thành công" style="ellipse;whiteSpace=wrap;html=1;aspect=fixed;" vertex="1" parent="26">
                    <mxGeometry width="115.55555555555556" height="115.55555555555556" as="geometry"/>
                </mxCell>
                <mxCell id="28" value="" style="endArrow=none;html=1;" edge="1" parent="26">
                    <mxGeometry width="50" height="50" relative="1" as="geometry">
                        <mxPoint x="2.2799999999999727" y="40" as="sourcePoint"/>
                        <mxPoint x="113.27999999999997" y="40" as="targetPoint"/>
                    </mxGeometry>
                </mxCell>
                <mxCell id="29" value="4" style="text;strokeColor=none;fillColor=none;align=center;verticalAlign=middle;spacingLeft=4;spacingRight=4;overflow=hidden;points=[[0,0.5],[1,0.5]];portConstraint=eastwest;rotatable=0;whiteSpace=wrap;html=1;" vertex="1" parent="26">
                    <mxGeometry x="13.330000000000041" width="88.88888888888889" height="33.75" as="geometry"/>
                </mxCell>
                <mxCell id="32" style="edgeStyle=none;html=1;exitX=0.5;exitY=0;exitDx=0;exitDy=0;entryX=0.5;entryY=1;entryDx=0;entryDy=0;" edge="1" parent="1" source="30" target="10">
                    <mxGeometry relative="1" as="geometry"/>
                </mxCell>
                <mxCell id="46" style="edgeStyle=none;html=1;exitX=0.75;exitY=0;exitDx=0;exitDy=0;entryX=0;entryY=0.5;entryDx=0;entryDy=0;" edge="1" parent="1" source="30" target="45">
                    <mxGeometry relative="1" as="geometry"/>
                </mxCell>
                <mxCell id="30" value="danh sách sách" style="shape=partialRectangle;whiteSpace=wrap;html=1;left=0;right=0;fillColor=none;" vertex="1" parent="1">
                    <mxGeometry x="272" y="690" width="120" height="40" as="geometry"/>
                </mxCell>
                <mxCell id="31" value="thông tin tiểm kiếm" style="text;html=1;align=center;verticalAlign=middle;resizable=0;points=[];autosize=1;strokeColor=none;fillColor=none;rotation=70;" vertex="1" parent="1">
                    <mxGeometry x="149" y="424" width="120" height="30" as="geometry"/>
                </mxCell>
                <mxCell id="33" value="thông tin sách" style="text;html=1;align=center;verticalAlign=middle;resizable=0;points=[];autosize=1;strokeColor=none;fillColor=none;rotation=52;" vertex="1" parent="1">
                    <mxGeometry x="261" y="620" width="100" height="30" as="geometry"/>
                </mxCell>
                <mxCell id="34" style="edgeStyle=none;html=1;exitX=0;exitY=0.5;exitDx=0;exitDy=0;entryX=1;entryY=0.5;entryDx=0;entryDy=0;" edge="1" parent="1" source="10" target="27">
                    <mxGeometry relative="1" as="geometry"/>
                </mxCell>
                <mxCell id="36" value="" style="curved=1;endArrow=classic;html=1;exitX=0;exitY=0.5;exitDx=0;exitDy=0;entryX=0.25;entryY=1;entryDx=0;entryDy=0;" edge="1" parent="1" source="29" target="6">
                    <mxGeometry width="50" height="50" relative="1" as="geometry">
                        <mxPoint x="190" y="430" as="sourcePoint"/>
                        <mxPoint x="240" y="380" as="targetPoint"/>
                        <Array as="points">
                            <mxPoint x="-20" y="350"/>
                        </Array>
                    </mxGeometry>
                </mxCell>
                <mxCell id="37" value="không có sách" style="text;html=1;align=center;verticalAlign=middle;resizable=0;points=[];autosize=1;strokeColor=none;fillColor=none;rotation=-79;" vertex="1" parent="1">
                    <mxGeometry x="-56" y="325" width="100" height="30" as="geometry"/>
                </mxCell>
                <mxCell id="38" value="không có sách" style="text;html=1;align=center;verticalAlign=middle;resizable=0;points=[];autosize=1;strokeColor=none;fillColor=none;rotation=0;" vertex="1" parent="1">
                    <mxGeometry x="102" y="511" width="100" height="30" as="geometry"/>
                </mxCell>
                <mxCell id="39" value="" style="group" vertex="1" connectable="0" parent="1">
                    <mxGeometry x="450" y="480" width="115.55555555555554" height="115.55555555555554" as="geometry"/>
                </mxCell>
                <mxCell id="40" value="kiểm tra tình trạng sách" style="ellipse;whiteSpace=wrap;html=1;aspect=fixed;" vertex="1" parent="39">
                    <mxGeometry width="115.55555555555556" height="115.55555555555556" as="geometry"/>
                </mxCell>
                <mxCell id="41" value="" style="endArrow=none;html=1;" edge="1" parent="39">
                    <mxGeometry width="50" height="50" relative="1" as="geometry">
                        <mxPoint x="2.2799999999999727" y="40" as="sourcePoint"/>
                        <mxPoint x="113.27999999999997" y="40" as="targetPoint"/>
                    </mxGeometry>
                </mxCell>
                <mxCell id="42" value="5" style="text;strokeColor=none;fillColor=none;align=center;verticalAlign=middle;spacingLeft=4;spacingRight=4;overflow=hidden;points=[[0,0.5],[1,0.5]];portConstraint=eastwest;rotatable=0;whiteSpace=wrap;html=1;" vertex="1" parent="39">
                    <mxGeometry x="13.330000000000041" width="88.88888888888889" height="33.75" as="geometry"/>
                </mxCell>
                <mxCell id="43" style="edgeStyle=none;html=1;exitX=1;exitY=0.5;exitDx=0;exitDy=0;entryX=0;entryY=0.5;entryDx=0;entryDy=0;" edge="1" parent="1" source="10" target="40">
                    <mxGeometry relative="1" as="geometry"/>
                </mxCell>
                <mxCell id="44" value="có sách" style="text;html=1;align=center;verticalAlign=middle;resizable=0;points=[];autosize=1;strokeColor=none;fillColor=none;" vertex="1" parent="1">
                    <mxGeometry x="345.56" y="511" width="60" height="30" as="geometry"/>
                </mxCell>
                <mxCell id="48" style="edgeStyle=none;html=1;exitX=0.5;exitY=0;exitDx=0;exitDy=0;entryX=0.5;entryY=1;entryDx=0;entryDy=0;" edge="1" parent="1" source="45" target="40">
                    <mxGeometry relative="1" as="geometry"/>
                </mxCell>
                <mxCell id="45" value="sách" style="shape=partialRectangle;whiteSpace=wrap;html=1;left=0;right=0;fillColor=none;" vertex="1" parent="1">
                    <mxGeometry x="447.78000000000003" y="620" width="120" height="40" as="geometry"/>
                </mxCell>
                <mxCell id="47" value="thông tin sách" style="text;html=1;align=center;verticalAlign=middle;resizable=0;points=[];autosize=1;strokeColor=none;fillColor=none;rotation=-29;" vertex="1" parent="1">
                    <mxGeometry x="346" y="644" width="100" height="30" as="geometry"/>
                </mxCell>
                <mxCell id="49" value="số lượng" style="text;html=1;align=center;verticalAlign=middle;resizable=0;points=[];autosize=1;strokeColor=none;fillColor=none;" vertex="1" parent="1">
                    <mxGeometry x="500" y="595.56" width="70" height="30" as="geometry"/>
                </mxCell>
                <mxCell id="50" value="" style="curved=1;endArrow=classic;html=1;exitX=1;exitY=0.5;exitDx=0;exitDy=0;entryX=0.5;entryY=1;entryDx=0;entryDy=0;" edge="1" parent="1" source="40" target="27">
                    <mxGeometry width="50" height="50" relative="1" as="geometry">
                        <mxPoint x="300" y="580" as="sourcePoint"/>
                        <mxPoint x="350" y="530" as="targetPoint"/>
                        <Array as="points">
                            <mxPoint x="670" y="1050"/>
                        </Array>
                    </mxGeometry>
                </mxCell>
                <mxCell id="52" value="không có sách" style="text;html=1;align=center;verticalAlign=middle;resizable=0;points=[];autosize=1;strokeColor=none;fillColor=none;rotation=28;" vertex="1" parent="1">
                    <mxGeometry x="228" y="750" width="100" height="30" as="geometry"/>
                </mxCell>
                <mxCell id="54" value="" style="group" vertex="1" connectable="0" parent="1">
                    <mxGeometry x="640" y="325" width="115.55555555555554" height="115.55555555555554" as="geometry"/>
                </mxCell>
                <mxCell id="55" value="kiểm tra điều kiện người mượn" style="ellipse;whiteSpace=wrap;html=1;aspect=fixed;" vertex="1" parent="54">
                    <mxGeometry width="115.55555555555556" height="115.55555555555556" as="geometry"/>
                </mxCell>
                <mxCell id="56" value="" style="endArrow=none;html=1;" edge="1" parent="54">
                    <mxGeometry width="50" height="50" relative="1" as="geometry">
                        <mxPoint x="2.2799999999999727" y="40" as="sourcePoint"/>
                        <mxPoint x="113.27999999999997" y="40" as="targetPoint"/>
                    </mxGeometry>
                </mxCell>
                <mxCell id="57" value="6" style="text;strokeColor=none;fillColor=none;align=center;verticalAlign=middle;spacingLeft=4;spacingRight=4;overflow=hidden;points=[[0,0.5],[1,0.5]];portConstraint=eastwest;rotatable=0;whiteSpace=wrap;html=1;" vertex="1" parent="54">
                    <mxGeometry x="13.330000000000041" width="88.88888888888889" height="33.75" as="geometry"/>
                </mxCell>
                <mxCell id="59" style="edgeStyle=none;html=1;exitX=1;exitY=0.5;exitDx=0;exitDy=0;entryX=0.5;entryY=1;entryDx=0;entryDy=0;" edge="1" parent="1" source="42" target="55">
                    <mxGeometry relative="1" as="geometry"/>
                </mxCell>
                <mxCell id="60" value="còn sách" style="text;html=1;align=center;verticalAlign=middle;resizable=0;points=[];autosize=1;strokeColor=none;fillColor=none;rotation=-20;" vertex="1" parent="1">
                    <mxGeometry x="567.78" y="454" width="70" height="30" as="geometry"/>
                </mxCell>
                <mxCell id="61" value="điều kiện người mượn" style="text;html=1;align=center;verticalAlign=middle;resizable=0;points=[];autosize=1;strokeColor=none;fillColor=none;rotation=5;" vertex="1" parent="1">
                    <mxGeometry x="502" y="350" width="140" height="30" as="geometry"/>
                </mxCell>
                <mxCell id="62" value="" style="group" vertex="1" connectable="0" parent="1">
                    <mxGeometry x="520" y="90" width="115.55555555555554" height="115.55555555555554" as="geometry"/>
                </mxCell>
                <mxCell id="63" value="tạo phiếu mượn" style="ellipse;whiteSpace=wrap;html=1;aspect=fixed;" vertex="1" parent="62">
                    <mxGeometry width="115.55555555555556" height="115.55555555555556" as="geometry"/>
                </mxCell>
                <mxCell id="64" value="" style="endArrow=none;html=1;" edge="1" parent="62">
                    <mxGeometry width="50" height="50" relative="1" as="geometry">
                        <mxPoint x="2.2799999999999727" y="40" as="sourcePoint"/>
                        <mxPoint x="113.27999999999997" y="40" as="targetPoint"/>
                    </mxGeometry>
                </mxCell>
                <mxCell id="65" value="7" style="text;strokeColor=none;fillColor=none;align=center;verticalAlign=middle;spacingLeft=4;spacingRight=4;overflow=hidden;points=[[0,0.5],[1,0.5]];portConstraint=eastwest;rotatable=0;whiteSpace=wrap;html=1;" vertex="1" parent="62">
                    <mxGeometry x="13.330000000000041" width="88.88888888888889" height="33.75" as="geometry"/>
                </mxCell>
                <mxCell id="66" value="" style="curved=1;endArrow=classic;html=1;exitX=1;exitY=1;exitDx=0;exitDy=0;entryX=0;entryY=1;entryDx=0;entryDy=0;" edge="1" parent="1" source="55" target="27">
                    <mxGeometry width="50" height="50" relative="1" as="geometry">
                        <mxPoint x="440" y="320" as="sourcePoint"/>
                        <mxPoint x="490" y="270" as="targetPoint"/>
                        <Array as="points">
                            <mxPoint x="650" y="1240"/>
                        </Array>
                    </mxGeometry>
                </mxCell>
                <mxCell id="67" value="không đủ điều kiện" style="text;html=1;align=center;verticalAlign=middle;resizable=0;points=[];autosize=1;strokeColor=none;fillColor=none;rotation=32;" vertex="1" parent="1">
                    <mxGeometry x="191" y="798" width="120" height="30" as="geometry"/>
                </mxCell>
                <mxCell id="69" style="edgeStyle=none;html=1;exitX=0;exitY=0.5;exitDx=0;exitDy=0;entryX=0.5;entryY=1;entryDx=0;entryDy=0;" edge="1" parent="1" source="57" target="63">
                    <mxGeometry relative="1" as="geometry"/>
                </mxCell>
                <mxCell id="70" value="đủ điều kiện" style="text;html=1;align=center;verticalAlign=middle;resizable=0;points=[];autosize=1;strokeColor=none;fillColor=none;rotation=60;" vertex="1" parent="1">
                    <mxGeometry x="580" y="244.44" width="90" height="30" as="geometry"/>
                </mxCell>
                <mxCell id="72" style="edgeStyle=none;html=1;exitX=0;exitY=0.5;exitDx=0;exitDy=0;entryX=0.75;entryY=0;entryDx=0;entryDy=0;" edge="1" parent="1" source="63" target="14">
                    <mxGeometry relative="1" as="geometry">
                        <mxPoint x="386" y="-40" as="targetPoint"/>
                    </mxGeometry>
                </mxCell>
                <mxCell id="73" value="mã đọc ,mã sách, ngày hẹn trả" style="text;html=1;align=center;verticalAlign=middle;resizable=0;points=[];autosize=1;strokeColor=none;fillColor=none;rotation=-75;" vertex="1" parent="1">
                    <mxGeometry x="391" y="217.56" width="190" height="30" as="geometry"/>
                </mxCell>
                <mxCell id="74" value="" style="group" vertex="1" connectable="0" parent="1">
                    <mxGeometry x="317.78" y="34.44" width="115.55555555555554" height="115.55555555555554" as="geometry"/>
                </mxCell>
                <mxCell id="75" value="thông báo thành công" style="ellipse;whiteSpace=wrap;html=1;aspect=fixed;" vertex="1" parent="74">
                    <mxGeometry width="115.55555555555556" height="115.55555555555556" as="geometry"/>
                </mxCell>
                <mxCell id="76" value="" style="endArrow=none;html=1;" edge="1" parent="74">
                    <mxGeometry width="50" height="50" relative="1" as="geometry">
                        <mxPoint x="2.2799999999999727" y="40" as="sourcePoint"/>
                        <mxPoint x="113.27999999999997" y="40" as="targetPoint"/>
                    </mxGeometry>
                </mxCell>
                <mxCell id="77" value="8" style="text;strokeColor=none;fillColor=none;align=center;verticalAlign=middle;spacingLeft=4;spacingRight=4;overflow=hidden;points=[[0,0.5],[1,0.5]];portConstraint=eastwest;rotatable=0;whiteSpace=wrap;html=1;" vertex="1" parent="74">
                    <mxGeometry x="13.330000000000041" width="88.88888888888889" height="33.75" as="geometry"/>
                </mxCell>
                <mxCell id="79" style="edgeStyle=none;html=1;exitX=0;exitY=0.5;exitDx=0;exitDy=0;entryX=1;entryY=0.5;entryDx=0;entryDy=0;" edge="1" parent="1" source="65" target="75">
                    <mxGeometry relative="1" as="geometry"/>
                </mxCell>
                <mxCell id="80" style="edgeStyle=none;html=1;exitX=0;exitY=0.5;exitDx=0;exitDy=0;entryX=1;entryY=0.25;entryDx=0;entryDy=0;" edge="1" parent="1" source="75" target="6">
                    <mxGeometry relative="1" as="geometry"/>
                </mxCell>
                <mxCell id="81" value="thành công" style="text;html=1;align=center;verticalAlign=middle;resizable=0;points=[];autosize=1;strokeColor=none;fillColor=none;rotation=-5;" vertex="1" parent="1">
                    <mxGeometry x="202" y="68" width="80" height="30" as="geometry"/>
                </mxCell>
                <mxCell id="82" value="thành công" style="text;html=1;align=center;verticalAlign=middle;resizable=0;points=[];autosize=1;strokeColor=none;fillColor=none;rotation=10;" vertex="1" parent="1">
                    <mxGeometry x="449" y="72" width="80" height="30" as="geometry"/>
                </mxCell>
            </root>
        </mxGraphModel>
    </diagram>
</mxfile>